<svg width="16" height="16" viewBox="0 0 16 16" fill="none" xmlns="http://www.w3.org/2000/svg">
	<path d="M14.5 5.16065V10.8394C14.5 11.3776 14.2116 11.8747 13.7442 12.1417L8.74421 14.9989C8.28306 15.2624 7.71694 15.2624 7.25579 14.9989L2.25579 12.1417C1.78843 11.8747 1.5 11.3776 1.5 10.8394V5.16065C1.5 4.62236 1.78843 4.12534 2.25579 3.85828L7.25579 1.00114C7.71694 0.737624 8.28306 0.737624 8.74421 1.00114L13.7442 3.85828C14.2116 4.12534 14.5 4.62236 14.5 5.16065Z" fill="#2F2936" stroke="#B589EC"/>
	<path d="M5.68534 11.5C7.17429 11.5 8.4505 10.6008 8.7648 9.32459H7.7496C7.43534 10.0546 6.65703 10.5767 5.68534 10.5767C4.34625 10.5767 3.3794 9.50345 3.3794 8C3.3794 6.49655 4.34625 5.42334 5.68534 5.42334C6.65703 5.42334 7.43534 5.94544 7.7496 6.67541H8.7648C8.4505 5.39917 7.17429 4.5 5.68534 4.5C3.76614 4.5 2.34004 5.99378 2.34004 8C2.34004 10.0062 3.76614 11.5 5.68534 11.5Z M10.75 5.5H11.45L10.95 10.5H10.25Z M12.55 5.5H13.25L12.75 10.5H12.05Z M9.25 6.8H13.75V7.6H9.25Z M9.05 8.8H13.55V9.6H9.05Z" fill="#B589EC"/>
</svg>