<svg width="16" height="16" viewBox="0 0 16 16" fill="none" xmlns="http://www.w3.org/2000/svg">
<path d="M14.5 5.16065V10.8394C14.5 11.3776 14.2116 11.8747 13.7442 12.1417L8.74421 14.9989C8.28306 15.2624 7.71694 15.2624 7.25579 14.9989L2.25579 12.1417C1.78843 11.8747 1.5 11.3776 1.5 10.8394V5.16065C1.5 4.62236 1.78843 4.12534 2.25579 3.85828L7.25579 1.00114C7.71694 0.737624 8.28306 0.737624 8.74421 1.00114L13.7442 3.85828C14.2116 4.12534 14.5 4.62236 14.5 5.16065Z" fill="#2F2936" stroke="#B589EC"/>
<path d="M6.63534 11.5C8.12429 11.5 9.4005 10.6008 9.7148 9.32459H8.6996C8.38534 10.0546 7.60703 10.5767 6.63534 10.5767C5.29625 10.5767 4.3294 9.50345 4.3294 8C4.3294 6.49655 5.29625 5.42334 6.63534 5.42334C7.60703 5.42334 8.38534 5.94544 8.6996 6.67541H9.7148C9.4005 5.39917 8.12429 4.5 6.63534 4.5C4.71614 4.5 3.29004 5.99378 3.29004 8C3.29004 10.0062 4.71614 11.5 6.63534 11.5Z M12.5 5.5H13.2L12.7 10.5H12Z M14.3 5.5H15L14.5 10.5H13.8Z M11 6.8H15.5V7.6H11Z M10.8 8.8H15.3V9.6H10.8Z" fill="#B589EC"/>
</svg>
