<svg width="16" height="16" viewBox="0 0 16 16" fill="none" xmlns="http://www.w3.org/2000/svg">
  <path d="M6 3.6C6 2.5 6.85 1.6 8 1.6C9.15 1.6 10 2.5 10 3.6" stroke="#95BF47" stroke-width="0.9" fill="none" stroke-linecap="round"/>
  <path d="M3 4.2L13 4.2L13.9 14.4L2.1 14.4L3 4.2Z" fill="#95BF47"/>
  <path d="M9.35 7.55C9.05 7.35 8.45 7.15 7.95 7.15C7.25 7.15 6.95 7.45 6.95 7.85C6.95 8.65 9.25 8.95 9.25 10.55C9.25 11.85 8.35 12.65 7.05 12.65C6.05 12.65 5.25 12.05 5.25 12.05L5.65 11.05C5.65 11.05 6.35 11.55 7.05 11.55C7.45 11.55 7.65 11.25 7.65 11.05C7.65 10.25 5.55 10.05 5.55 8.45C5.55 7.05 6.45 6.05 8.05 6.05C8.85 6.05 9.45 6.35 9.45 6.35L9.35 7.55Z" fill="white"/>
</svg>
